<svg xmlns="http://www.w3.org/2000/svg" width="2850" height="1150" viewBox="0 0 2850 1150">
<rect width="100%" height="100%" fill="white"/>
<rect x="40" y="18" width="300" height="38" rx="3" fill="#cfe8ff" stroke="#222"/>
<text x="190" y="43" font-family="Arial" font-size="14" font-weight="bold" text-anchor="middle" fill="#111">API</text>
<rect x="420" y="18" width="590" height="38" rx="3" fill="#fff0bd" stroke="#222"/>
<text x="715" y="43" font-family="Arial" font-size="14" font-weight="bold" text-anchor="middle" fill="#111">Application</text>
<rect x="1090" y="18" width="560" height="38" rx="3" fill="#dff4df" stroke="#222"/>
<text x="1370" y="43" font-family="Arial" font-size="14" font-weight="bold" text-anchor="middle" fill="#111">Domain</text>
<rect x="1730" y="18" width="370" height="38" rx="3" fill="#eadff8" stroke="#222"/>
<text x="1915" y="43" font-family="Arial" font-size="14" font-weight="bold" text-anchor="middle" fill="#111">Persistence</text>
<rect x="2180" y="18" width="590" height="38" rx="3" fill="#f8dfd8" stroke="#222"/>
<text x="2475" y="43" font-family="Arial" font-size="14" font-weight="bold" text-anchor="middle" fill="#111">Infrastructure</text>
<polyline points="305.0,235.0 445.0,235.0 445.0,147.5 585.0,147.5" fill="none" stroke="#222" stroke-width="1.2" stroke-dasharray="7 5"/>
<polyline points="695.0,320.0 715.0,320.0 715.0,297.5 735.0,297.5" fill="none" stroke="#222" stroke-width="1.2" stroke-dasharray="7 5"/>
<polyline points="695.0,507.5 715.0,507.5 715.0,497.5 735.0,497.5" fill="none" stroke="#222" stroke-width="1.2" stroke-dasharray="7 5"/>
<polyline points="695.0,677.5 715.0,677.5 715.0,667.5 735.0,667.5" fill="none" stroke="#222" stroke-width="1.2" stroke-dasharray="7 5"/>
<polyline points="695.0,850.0 715.0,850.0 715.0,837.5 735.0,837.5" fill="none" stroke="#222" stroke-width="1.2" stroke-dasharray="7 5"/>
<polyline points="965.0,297.5 1232.5,297.5 1232.5,837.5 1500.0,837.5" fill="none" stroke="#222" stroke-width="1.2" stroke-dasharray="7 5"/>
<polyline points="965.0,497.5 1232.5,497.5 1232.5,870.0 1500.0,870.0" fill="none" stroke="#222" stroke-width="1.2" stroke-dasharray="7 5"/>
<polyline points="965.0,667.5 1232.5,667.5 1232.5,902.5 1500.0,902.5" fill="none" stroke="#222" stroke-width="1.2" stroke-dasharray="7 5"/>
<polyline points="965.0,837.5 1375.0,837.5 1375.0,520.0 1785.0,520.0" fill="none" stroke="#222" stroke-width="1.2" stroke-dasharray="7 5"/>
<polyline points="1175.0,360.0 1175.0,560.0 1395.0,560.0 1395.0,760.0" fill="none" stroke="#222" stroke-width="1.2" stroke-dasharray="7 5"/>
<polyline points="1910.0,320.0 1910.0,280.0 1847.5,280.0 1847.5,240.0" fill="none" stroke="#222" stroke-width="1.2" stroke-dasharray="7 5"/>
<polyline points="1910.0,480.0 1910.0,360.0 1910.0,360.0 1910.0,240.0" fill="none" stroke="#222" stroke-width="1.2" stroke-dasharray="7 5"/>
<polyline points="1910.0,640.0 1910.0,440.0 1972.5,440.0 1972.5,240.0" fill="none" stroke="#222" stroke-width="1.2" stroke-dasharray="7 5"/>
<polyline points="2240.0,660.0 2137.5,660.0 2137.5,966.7 2035.0,966.7" fill="none" stroke="#222" stroke-width="1.2" stroke-dasharray="7 5"/>
<polyline points="2240.0,810.0 2137.5,810.0 2137.5,1003.3 2035.0,1003.3" fill="none" stroke="#222" stroke-width="1.2" stroke-dasharray="7 5"/>
<polyline points="2460.0,810.0 2465.0,810.0 2465.0,810.0 2470.0,810.0" fill="none" stroke="#222" stroke-width="1.2" stroke-dasharray="7 5"/>
<polyline points="1910.0,400.0 1910.0,602.5 1560.0,602.5 1560.0,805.0" fill="none" stroke="#222" stroke-width="1.2" stroke-dasharray="7 5"/>
<polyline points="2470.0,160.0 2430.0,160.0 2430.0,160.0 2390.0,160.0" fill="none" stroke="#222" stroke-width="1.2" stroke-dasharray="7 5"/>
<polyline points="2470.0,325.0 2430.0,325.0 2430.0,317.5 2390.0,317.5" fill="none" stroke="#222" stroke-width="1.2" stroke-dasharray="7 5"/>
<polyline points="2470.0,485.0 2430.0,485.0 2430.0,482.5 2390.0,482.5" fill="none" stroke="#222" stroke-width="1.2" stroke-dasharray="7 5"/>
<polyline points="1220.0,360.0 1220.0,415.0 1360.0,415.0 1360.0,470.0" fill="none" stroke="#222" stroke-width="1.2"/>
<polyline points="1265.0,360.0 1265.0,505.0 1210.0,505.0 1210.0,650.0" fill="none" stroke="#222" stroke-width="1.2"/>
<polyline points="1400.0,186.7 1425.0,186.7 1425.0,172.5 1450.0,172.5" fill="none" stroke="#222" stroke-width="1.2"/>
<polyline points="1400.0,273.3 1425.0,273.3 1425.0,415.0 1450.0,415.0" fill="none" stroke="#222" stroke-width="1.2"/>
<polyline points="1310.0,360.0 1310.0,475.0 1530.0,475.0 1530.0,590.0" fill="none" stroke="#222" stroke-width="1.2"/>
<polyline points="1355.0,360.0 1355.0,415.0 1205.0,415.0 1205.0,470.0" fill="none" stroke="#222" stroke-width="1.2"/>
<rect x="75" y="130" width="230" height="210" rx="2" fill="#cfe8ff" stroke="#222"/>
<text x="190" y="146" font-family="Arial" font-size="10" font-weight="normal" text-anchor="middle" fill="#111">&lt;&lt;контроллер&gt;&gt;</text>
<text x="190" y="164" font-family="Arial" font-size="12" font-weight="bold" text-anchor="middle" fill="#111">ProjectsController</text>
<line x1="75" y1="182" x2="305" y2="182" stroke="#333"/>
<text x="81" y="195" font-family="Arial" font-size="10" font-weight="normal" text-anchor="start" fill="#111">+CreateProject()</text>
<text x="81" y="209" font-family="Arial" font-size="10" font-weight="normal" text-anchor="start" fill="#111">+GetProjects()</text>
<text x="81" y="223" font-family="Arial" font-size="10" font-weight="normal" text-anchor="start" fill="#111">+GetProjectById()</text>
<text x="81" y="237" font-family="Arial" font-size="10" font-weight="normal" text-anchor="start" fill="#111">+UpdateProject()</text>
<text x="81" y="251" font-family="Arial" font-size="10" font-weight="normal" text-anchor="start" fill="#111">+PublishProject()</text>
<text x="81" y="265" font-family="Arial" font-size="10" font-weight="normal" text-anchor="start" fill="#111">+ArchiveProject()</text>
<text x="81" y="279" font-family="Arial" font-size="10" font-weight="normal" text-anchor="start" fill="#111">+AddMember()</text>
<text x="81" y="293" font-family="Arial" font-size="10" font-weight="normal" text-anchor="start" fill="#111">+AddMilestone()</text>
<text x="81" y="307" font-family="Arial" font-size="10" font-weight="normal" text-anchor="start" fill="#111">+AddAttachment()</text>
<rect x="585" y="105" width="240" height="85" rx="2" fill="#fff0bd" stroke="#222"/>
<text x="705" y="121" font-family="Arial" font-size="10" font-weight="normal" text-anchor="middle" fill="#111">&lt;&lt;интерфейс&gt;&gt;</text>
<text x="705" y="139" font-family="Arial" font-size="12" font-weight="bold" text-anchor="middle" fill="#111">IMediator</text>
<line x1="585" y1="157" x2="825" y2="157" stroke="#333"/>
<text x="591" y="170" font-family="Arial" font-size="10" font-weight="normal" text-anchor="start" fill="#111">+Send()</text>
<rect x="465" y="250" width="230" height="140" rx="2" fill="#fff0bd" stroke="#222"/>
<text x="580" y="266" font-family="Arial" font-size="10" font-weight="normal" text-anchor="middle" fill="#111">&lt;&lt;команда&gt;&gt;</text>
<text x="580" y="284" font-family="Arial" font-size="12" font-weight="bold" text-anchor="middle" fill="#111">CreateProjectCommand</text>
<line x1="465" y1="302" x2="695" y2="302" stroke="#333"/>
<text x="471" y="315" font-family="Arial" font-size="10" font-weight="normal" text-anchor="start" fill="#111">+Title: string</text>
<text x="471" y="329" font-family="Arial" font-size="10" font-weight="normal" text-anchor="start" fill="#111">+Description: string</text>
<text x="471" y="343" font-family="Arial" font-size="10" font-weight="normal" text-anchor="start" fill="#111">+OwnerId: Guid</text>
<text x="471" y="357" font-family="Arial" font-size="10" font-weight="normal" text-anchor="start" fill="#111">+Budget: Budget</text>
<rect x="735" y="250" width="230" height="95" rx="2" fill="#fff0bd" stroke="#222"/>
<text x="850" y="266" font-family="Arial" font-size="10" font-weight="normal" text-anchor="middle" fill="#111">&lt;&lt;обработчик&gt;&gt;</text>
<text x="850" y="284" font-family="Arial" font-size="12" font-weight="bold" text-anchor="middle" fill="#111">CreateProjectCommandHandler</text>
<line x1="735" y1="302" x2="965" y2="302" stroke="#333"/>
<text x="741" y="315" font-family="Arial" font-size="10" font-weight="normal" text-anchor="start" fill="#111">+Handle()</text>
<rect x="465" y="450" width="230" height="115" rx="2" fill="#fff0bd" stroke="#222"/>
<text x="580" y="466" font-family="Arial" font-size="10" font-weight="normal" text-anchor="middle" fill="#111">&lt;&lt;команда&gt;&gt;</text>
<text x="580" y="484" font-family="Arial" font-size="12" font-weight="bold" text-anchor="middle" fill="#111">PublishProjectCommand</text>
<line x1="465" y1="502" x2="695" y2="502" stroke="#333"/>
<text x="471" y="515" font-family="Arial" font-size="10" font-weight="normal" text-anchor="start" fill="#111">+ProjectId: Guid</text>
<text x="471" y="529" font-family="Arial" font-size="10" font-weight="normal" text-anchor="start" fill="#111">+ExpiresAt: DateTime</text>
<rect x="735" y="450" width="230" height="95" rx="2" fill="#fff0bd" stroke="#222"/>
<text x="850" y="466" font-family="Arial" font-size="10" font-weight="normal" text-anchor="middle" fill="#111">&lt;&lt;обработчик&gt;&gt;</text>
<text x="850" y="484" font-family="Arial" font-size="12" font-weight="bold" text-anchor="middle" fill="#111">PublishProjectCommandHandler</text>
<line x1="735" y1="502" x2="965" y2="502" stroke="#333"/>
<text x="741" y="515" font-family="Arial" font-size="10" font-weight="normal" text-anchor="start" fill="#111">+Handle()</text>
<rect x="465" y="620" width="230" height="115" rx="2" fill="#fff0bd" stroke="#222"/>
<text x="580" y="636" font-family="Arial" font-size="10" font-weight="normal" text-anchor="middle" fill="#111">&lt;&lt;команда&gt;&gt;</text>
<text x="580" y="654" font-family="Arial" font-size="12" font-weight="bold" text-anchor="middle" fill="#111">AddMemberCommand</text>
<line x1="465" y1="672" x2="695" y2="672" stroke="#333"/>
<text x="471" y="685" font-family="Arial" font-size="10" font-weight="normal" text-anchor="start" fill="#111">+ProjectId: Guid</text>
<text x="471" y="699" font-family="Arial" font-size="10" font-weight="normal" text-anchor="start" fill="#111">+UserId: Guid</text>
<text x="471" y="713" font-family="Arial" font-size="10" font-weight="normal" text-anchor="start" fill="#111">+Role: string</text>
<rect x="735" y="620" width="230" height="95" rx="2" fill="#fff0bd" stroke="#222"/>
<text x="850" y="636" font-family="Arial" font-size="10" font-weight="normal" text-anchor="middle" fill="#111">&lt;&lt;обработчик&gt;&gt;</text>
<text x="850" y="654" font-family="Arial" font-size="12" font-weight="bold" text-anchor="middle" fill="#111">AddMemberCommandHandler</text>
<line x1="735" y1="672" x2="965" y2="672" stroke="#333"/>
<text x="741" y="685" font-family="Arial" font-size="10" font-weight="normal" text-anchor="start" fill="#111">+Handle()</text>
<rect x="465" y="790" width="230" height="120" rx="2" fill="#fff0bd" stroke="#222"/>
<text x="580" y="806" font-family="Arial" font-size="10" font-weight="normal" text-anchor="middle" fill="#111">&lt;&lt;запрос&gt;&gt;</text>
<text x="580" y="824" font-family="Arial" font-size="12" font-weight="bold" text-anchor="middle" fill="#111">GetProjectsByFilterQuery</text>
<line x1="465" y1="842" x2="695" y2="842" stroke="#333"/>
<text x="471" y="855" font-family="Arial" font-size="10" font-weight="normal" text-anchor="start" fill="#111">+Status: ProjectStatus?</text>
<text x="471" y="869" font-family="Arial" font-size="10" font-weight="normal" text-anchor="start" fill="#111">+Tag: string?</text>
<text x="471" y="883" font-family="Arial" font-size="10" font-weight="normal" text-anchor="start" fill="#111">+Page: int</text>
<rect x="735" y="790" width="230" height="95" rx="2" fill="#fff0bd" stroke="#222"/>
<text x="850" y="806" font-family="Arial" font-size="10" font-weight="normal" text-anchor="middle" fill="#111">&lt;&lt;обработчик запроса&gt;&gt;</text>
<text x="850" y="824" font-family="Arial" font-size="12" font-weight="bold" text-anchor="middle" fill="#111">GetProjectsByFilterQueryHandler</text>
<line x1="735" y1="842" x2="965" y2="842" stroke="#333"/>
<text x="741" y="855" font-family="Arial" font-size="10" font-weight="normal" text-anchor="start" fill="#111">+Handle()</text>
<rect x="2200" y="265" width="190" height="105" rx="2" fill="#fff0bd" stroke="#222"/>
<text x="2295" y="281" font-family="Arial" font-size="10" font-weight="normal" text-anchor="middle" fill="#111">&lt;&lt;интерфейс&gt;&gt;</text>
<text x="2295" y="299" font-family="Arial" font-size="12" font-weight="bold" text-anchor="middle" fill="#111">IFileStorage</text>
<line x1="2200" y1="317" x2="2390" y2="317" stroke="#333"/>
<text x="2206" y="330" font-family="Arial" font-size="10" font-weight="normal" text-anchor="start" fill="#111">+SaveAsync()</text>
<text x="2206" y="344" font-family="Arial" font-size="10" font-weight="normal" text-anchor="start" fill="#111">+DeleteAsync()</text>
<rect x="2200" y="100" width="190" height="120" rx="2" fill="#fff0bd" stroke="#222"/>
<text x="2295" y="116" font-family="Arial" font-size="10" font-weight="normal" text-anchor="middle" fill="#111">&lt;&lt;интерфейс&gt;&gt;</text>
<text x="2295" y="134" font-family="Arial" font-size="12" font-weight="bold" text-anchor="middle" fill="#111">ICacheService</text>
<line x1="2200" y1="152" x2="2390" y2="152" stroke="#333"/>
<text x="2206" y="165" font-family="Arial" font-size="10" font-weight="normal" text-anchor="start" fill="#111">+GetAsync()</text>
<text x="2206" y="179" font-family="Arial" font-size="10" font-weight="normal" text-anchor="start" fill="#111">+SetAsync()</text>
<text x="2206" y="193" font-family="Arial" font-size="10" font-weight="normal" text-anchor="start" fill="#111">+RemoveAsync()</text>
<rect x="2200" y="430" width="190" height="105" rx="2" fill="#fff0bd" stroke="#222"/>
<text x="2295" y="446" font-family="Arial" font-size="10" font-weight="normal" text-anchor="middle" fill="#111">&lt;&lt;интерфейс&gt;&gt;</text>
<text x="2295" y="464" font-family="Arial" font-size="12" font-weight="bold" text-anchor="middle" fill="#111">IBackgroundJobManager</text>
<line x1="2200" y1="482" x2="2390" y2="482" stroke="#333"/>
<text x="2206" y="495" font-family="Arial" font-size="10" font-weight="normal" text-anchor="start" fill="#111">+Schedule()</text>
<text x="2206" y="509" font-family="Arial" font-size="10" font-weight="normal" text-anchor="start" fill="#111">+AddOrUpdateRecurring()</text>
<rect x="1130" y="100" width="270" height="260" rx="2" fill="#dff4df" stroke="#222"/>
<text x="1265" y="116" font-family="Arial" font-size="10" font-weight="normal" text-anchor="middle" fill="#111">&lt;&lt;агрегат&gt;&gt;</text>
<text x="1265" y="134" font-family="Arial" font-size="12" font-weight="bold" text-anchor="middle" fill="#111">Project</text>
<line x1="1130" y1="152" x2="1400" y2="152" stroke="#333"/>
<text x="1136" y="165" font-family="Arial" font-size="10" font-weight="normal" text-anchor="start" fill="#111">+Id: Guid</text>
<text x="1136" y="179" font-family="Arial" font-size="10" font-weight="normal" text-anchor="start" fill="#111">+Title: string</text>
<text x="1136" y="193" font-family="Arial" font-size="10" font-weight="normal" text-anchor="start" fill="#111">+Description: string</text>
<text x="1136" y="207" font-family="Arial" font-size="10" font-weight="normal" text-anchor="start" fill="#111">+OwnerId: Guid</text>
<text x="1136" y="221" font-family="Arial" font-size="10" font-weight="normal" text-anchor="start" fill="#111">+Status: ProjectStatus</text>
<text x="1136" y="235" font-family="Arial" font-size="10" font-weight="normal" text-anchor="start" fill="#111">+ExpiresAt: DateTime?</text>
<line x1="1130" y1="249" x2="1400" y2="249" stroke="#333"/>
<text x="1136" y="262" font-family="Arial" font-size="10" font-weight="normal" text-anchor="start" fill="#111">+CreateDraft()</text>
<text x="1136" y="276" font-family="Arial" font-size="10" font-weight="normal" text-anchor="start" fill="#111">+Publish()</text>
<text x="1136" y="290" font-family="Arial" font-size="10" font-weight="normal" text-anchor="start" fill="#111">+Archive()</text>
<text x="1136" y="304" font-family="Arial" font-size="10" font-weight="normal" text-anchor="start" fill="#111">+Complete()</text>
<text x="1136" y="318" font-family="Arial" font-size="10" font-weight="normal" text-anchor="start" fill="#111">+AddMember()</text>
<text x="1136" y="332" font-family="Arial" font-size="10" font-weight="normal" text-anchor="start" fill="#111">+AddMilestone()</text>
<text x="1136" y="346" font-family="Arial" font-size="10" font-weight="normal" text-anchor="start" fill="#111">+AddAttachment()</text>
<rect x="1450" y="100" width="160" height="145" rx="2" fill="#dff4df" stroke="#222"/>
<text x="1530" y="116" font-family="Arial" font-size="10" font-weight="normal" text-anchor="middle" fill="#111">&lt;&lt;сущность&gt;&gt;</text>
<text x="1530" y="134" font-family="Arial" font-size="12" font-weight="bold" text-anchor="middle" fill="#111">ProjectMember</text>
<line x1="1450" y1="152" x2="1610" y2="152" stroke="#333"/>
<text x="1456" y="165" font-family="Arial" font-size="10" font-weight="normal" text-anchor="start" fill="#111">+Id: Guid</text>
<text x="1456" y="179" font-family="Arial" font-size="10" font-weight="normal" text-anchor="start" fill="#111">+UserId: Guid</text>
<text x="1456" y="193" font-family="Arial" font-size="10" font-weight="normal" text-anchor="start" fill="#111">+Role: string</text>
<text x="1456" y="207" font-family="Arial" font-size="10" font-weight="normal" text-anchor="start" fill="#111">+ProjectId: Guid</text>
<text x="1456" y="221" font-family="Arial" font-size="10" font-weight="normal" text-anchor="start" fill="#111">+AddedAt: DateTime</text>
<rect x="1450" y="320" width="160" height="190" rx="2" fill="#dff4df" stroke="#222"/>
<text x="1530" y="336" font-family="Arial" font-size="10" font-weight="normal" text-anchor="middle" fill="#111">&lt;&lt;сущность&gt;&gt;</text>
<text x="1530" y="354" font-family="Arial" font-size="12" font-weight="bold" text-anchor="middle" fill="#111">ProjectMilestone</text>
<line x1="1450" y1="372" x2="1610" y2="372" stroke="#333"/>
<text x="1456" y="385" font-family="Arial" font-size="10" font-weight="normal" text-anchor="start" fill="#111">+Id: Guid</text>
<text x="1456" y="399" font-family="Arial" font-size="10" font-weight="normal" text-anchor="start" fill="#111">+Title: string</text>
<text x="1456" y="413" font-family="Arial" font-size="10" font-weight="normal" text-anchor="start" fill="#111">+DueDate: DateTime</text>
<text x="1456" y="427" font-family="Arial" font-size="10" font-weight="normal" text-anchor="start" fill="#111">+IsCompleted: bool</text>
<text x="1456" y="441" font-family="Arial" font-size="10" font-weight="normal" text-anchor="start" fill="#111">+IsEscalated: bool</text>
<line x1="1450" y1="455" x2="1610" y2="455" stroke="#333"/>
<text x="1456" y="468" font-family="Arial" font-size="10" font-weight="normal" text-anchor="start" fill="#111">+MarkCompleted()</text>
<text x="1456" y="482" font-family="Arial" font-size="10" font-weight="normal" text-anchor="start" fill="#111">+MarkEscalated()</text>
<text x="1456" y="496" font-family="Arial" font-size="10" font-weight="normal" text-anchor="start" fill="#111">+Reschedule()</text>
<rect x="1450" y="590" width="160" height="125" rx="2" fill="#dff4df" stroke="#222"/>
<text x="1530" y="606" font-family="Arial" font-size="10" font-weight="normal" text-anchor="middle" fill="#111">&lt;&lt;сущность&gt;&gt;</text>
<text x="1530" y="624" font-family="Arial" font-size="12" font-weight="bold" text-anchor="middle" fill="#111">ProjectAttachment</text>
<line x1="1450" y1="642" x2="1610" y2="642" stroke="#333"/>
<text x="1456" y="655" font-family="Arial" font-size="10" font-weight="normal" text-anchor="start" fill="#111">+Id: Guid</text>
<text x="1456" y="669" font-family="Arial" font-size="10" font-weight="normal" text-anchor="start" fill="#111">+FileName: string</text>
<text x="1456" y="683" font-family="Arial" font-size="10" font-weight="normal" text-anchor="start" fill="#111">+Url: string</text>
<text x="1456" y="697" font-family="Arial" font-size="10" font-weight="normal" text-anchor="start" fill="#111">+ProjectId: Guid</text>
<rect x="1130" y="470" width="150" height="115" rx="2" fill="#dff4df" stroke="#222"/>
<text x="1205" y="486" font-family="Arial" font-size="10" font-weight="normal" text-anchor="middle" fill="#111">&lt;&lt;value object&gt;&gt;</text>
<text x="1205" y="504" font-family="Arial" font-size="12" font-weight="bold" text-anchor="middle" fill="#111">Budget</text>
<line x1="1130" y1="522" x2="1280" y2="522" stroke="#333"/>
<text x="1136" y="535" font-family="Arial" font-size="10" font-weight="normal" text-anchor="start" fill="#111">+Min: decimal</text>
<text x="1136" y="549" font-family="Arial" font-size="10" font-weight="normal" text-anchor="start" fill="#111">+Max: decimal</text>
<text x="1136" y="563" font-family="Arial" font-size="10" font-weight="normal" text-anchor="start" fill="#111">+Currency: string</text>
<rect x="1300" y="470" width="120" height="85" rx="2" fill="#dff4df" stroke="#222"/>
<text x="1360" y="486" font-family="Arial" font-size="10" font-weight="normal" text-anchor="middle" fill="#111">&lt;&lt;value object&gt;&gt;</text>
<text x="1360" y="504" font-family="Arial" font-size="12" font-weight="bold" text-anchor="middle" fill="#111">Tag</text>
<line x1="1300" y1="522" x2="1420" y2="522" stroke="#333"/>
<text x="1306" y="535" font-family="Arial" font-size="10" font-weight="normal" text-anchor="start" fill="#111">+Name: string</text>
<rect x="1130" y="650" width="160" height="120" rx="2" fill="#dff4df" stroke="#222"/>
<text x="1210" y="666" font-family="Arial" font-size="10" font-weight="normal" text-anchor="middle" fill="#111">&lt;&lt;enum&gt;&gt;</text>
<text x="1210" y="684" font-family="Arial" font-size="12" font-weight="bold" text-anchor="middle" fill="#111">ProjectStatus</text>
<line x1="1130" y1="702" x2="1290" y2="702" stroke="#333"/>
<text x="1136" y="715" font-family="Arial" font-size="10" font-weight="normal" text-anchor="start" fill="#111">+Draft</text>
<text x="1136" y="729" font-family="Arial" font-size="10" font-weight="normal" text-anchor="start" fill="#111">+Active</text>
<text x="1136" y="743" font-family="Arial" font-size="10" font-weight="normal" text-anchor="start" fill="#111">+Completed</text>
<text x="1136" y="757" font-family="Arial" font-size="10" font-weight="normal" text-anchor="start" fill="#111">+Archived</text>
<rect x="1300" y="760" width="190" height="170" rx="2" fill="#dff4df" stroke="#222"/>
<text x="1395" y="776" font-family="Arial" font-size="10" font-weight="normal" text-anchor="middle" fill="#111">&lt;&lt;события&gt;&gt;</text>
<text x="1395" y="794" font-family="Arial" font-size="12" font-weight="bold" text-anchor="middle" fill="#111">DomainEvent</text>
<line x1="1300" y1="812" x2="1490" y2="812" stroke="#333"/>
<text x="1306" y="825" font-family="Arial" font-size="10" font-weight="normal" text-anchor="start" fill="#111">+ProjectCreatedDomainEvent</text>
<text x="1306" y="839" font-family="Arial" font-size="10" font-weight="normal" text-anchor="start" fill="#111">+ProjectPublishedDomainEvent</text>
<text x="1306" y="853" font-family="Arial" font-size="10" font-weight="normal" text-anchor="start" fill="#111">+ProjectMemberAddedDomainEvent</text>
<text x="1306" y="867" font-family="Arial" font-size="10" font-weight="normal" text-anchor="start" fill="#111">+MilestoneAddedDomainEvent</text>
<text x="1306" y="881" font-family="Arial" font-size="10" font-weight="normal" text-anchor="start" fill="#111">+AttachmentAddedDomainEvent</text>
<rect x="1500" y="805" width="120" height="130" rx="2" fill="#dff4df" stroke="#222"/>
<text x="1560" y="821" font-family="Arial" font-size="10" font-weight="normal" text-anchor="middle" fill="#111">&lt;&lt;интерфейс&gt;&gt;</text>
<text x="1560" y="839" font-family="Arial" font-size="10" font-weight="bold" text-anchor="middle" fill="#111">IProjectRepository</text>
<line x1="1500" y1="857" x2="1620" y2="857" stroke="#333"/>
<text x="1506" y="870" font-family="Arial" font-size="10" font-weight="normal" text-anchor="start" fill="#111">+AddAsync()</text>
<text x="1506" y="884" font-family="Arial" font-size="10" font-weight="normal" text-anchor="start" fill="#111">+UpdateAsync()</text>
<text x="1506" y="898" font-family="Arial" font-size="10" font-weight="normal" text-anchor="start" fill="#111">+DeleteAsync()</text>
<text x="1506" y="912" font-family="Arial" font-size="10" font-weight="normal" text-anchor="start" fill="#111">+ExistsAsync()</text>
<rect x="1785" y="110" width="250" height="130" rx="2" fill="#eadff8" stroke="#222"/>
<text x="1910" y="126" font-family="Arial" font-size="10" font-weight="normal" text-anchor="middle" fill="#111">&lt;&lt;EF Core&gt;&gt;</text>
<text x="1910" y="144" font-family="Arial" font-size="12" font-weight="bold" text-anchor="middle" fill="#111">ProjectsDbContext</text>
<line x1="1785" y1="162" x2="2035" y2="162" stroke="#333"/>
<text x="1791" y="175" font-family="Arial" font-size="10" font-weight="normal" text-anchor="start" fill="#111">+Projects</text>
<text x="1791" y="189" font-family="Arial" font-size="10" font-weight="normal" text-anchor="start" fill="#111">+UserReadModels</text>
<text x="1791" y="203" font-family="Arial" font-size="10" font-weight="normal" text-anchor="start" fill="#111">+IncomingEvents</text>
<text x="1791" y="217" font-family="Arial" font-size="10" font-weight="normal" text-anchor="start" fill="#111">+OutboxMessages</text>
<rect x="1785" y="320" width="250" height="80" rx="2" fill="#eadff8" stroke="#222"/>
<text x="1910" y="336" font-family="Arial" font-size="10" font-weight="normal" text-anchor="middle" fill="#111">&lt;&lt;репозиторий&gt;&gt;</text>
<text x="1910" y="354" font-family="Arial" font-size="12" font-weight="bold" text-anchor="middle" fill="#111">ProjectRepository</text>
<rect x="1785" y="480" width="250" height="80" rx="2" fill="#eadff8" stroke="#222"/>
<text x="1910" y="496" font-family="Arial" font-size="10" font-weight="normal" text-anchor="middle" fill="#111">&lt;&lt;запросы&gt;&gt;</text>
<text x="1910" y="514" font-family="Arial" font-size="12" font-weight="bold" text-anchor="middle" fill="#111">ProjectQueryService</text>
<rect x="1785" y="640" width="250" height="80" rx="2" fill="#eadff8" stroke="#222"/>
<text x="1910" y="656" font-family="Arial" font-size="10" font-weight="normal" text-anchor="middle" fill="#111">&lt;&lt;read repository&gt;&gt;</text>
<text x="1910" y="674" font-family="Arial" font-size="12" font-weight="bold" text-anchor="middle" fill="#111">UserReadRepository</text>
<rect x="1785" y="780" width="250" height="110" rx="2" fill="#eadff8" stroke="#222"/>
<text x="1910" y="796" font-family="Arial" font-size="10" font-weight="normal" text-anchor="middle" fill="#111">&lt;&lt;read model&gt;&gt;</text>
<text x="1910" y="814" font-family="Arial" font-size="12" font-weight="bold" text-anchor="middle" fill="#111">UserReadModel</text>
<line x1="1785" y1="832" x2="2035" y2="832" stroke="#333"/>
<text x="1791" y="845" font-family="Arial" font-size="10" font-weight="normal" text-anchor="start" fill="#111">+Id: Guid</text>
<text x="1791" y="859" font-family="Arial" font-size="10" font-weight="normal" text-anchor="start" fill="#111">+Login: string</text>
<text x="1791" y="873" font-family="Arial" font-size="10" font-weight="normal" text-anchor="start" fill="#111">+Name: string</text>
<rect x="1785" y="930" width="250" height="110" rx="2" fill="#eadff8" stroke="#222"/>
<text x="1910" y="946" font-family="Arial" font-size="10" font-weight="normal" text-anchor="middle" fill="#111">&lt;&lt;модель БД&gt;&gt;</text>
<text x="1910" y="964" font-family="Arial" font-size="12" font-weight="bold" text-anchor="middle" fill="#111">OutboxMessage</text>
<line x1="1785" y1="982" x2="2035" y2="982" stroke="#333"/>
<text x="1791" y="995" font-family="Arial" font-size="10" font-weight="normal" text-anchor="start" fill="#111">+Topic: string</text>
<text x="1791" y="1009" font-family="Arial" font-size="10" font-weight="normal" text-anchor="start" fill="#111">+Payload: string</text>
<text x="1791" y="1023" font-family="Arial" font-size="10" font-weight="normal" text-anchor="start" fill="#111">+Processed: bool</text>
<rect x="2470" y="120" width="220" height="80" rx="2" fill="#f8dfd8" stroke="#222"/>
<text x="2580" y="136" font-family="Arial" font-size="10" font-weight="normal" text-anchor="middle" fill="#111">&lt;&lt;Redis&gt;&gt;</text>
<text x="2580" y="154" font-family="Arial" font-size="12" font-weight="bold" text-anchor="middle" fill="#111">RedisCacheService</text>
<rect x="2470" y="285" width="220" height="80" rx="2" fill="#f8dfd8" stroke="#222"/>
<text x="2580" y="301" font-family="Arial" font-size="10" font-weight="normal" text-anchor="middle" fill="#111">&lt;&lt;S3&gt;&gt;</text>
<text x="2580" y="319" font-family="Arial" font-size="12" font-weight="bold" text-anchor="middle" fill="#111">S3FileStorage</text>
<rect x="2470" y="445" width="220" height="80" rx="2" fill="#f8dfd8" stroke="#222"/>
<text x="2580" y="461" font-family="Arial" font-size="10" font-weight="normal" text-anchor="middle" fill="#111">&lt;&lt;Hangfire&gt;&gt;</text>
<text x="2580" y="479" font-family="Arial" font-size="12" font-weight="bold" text-anchor="middle" fill="#111">BackgroundJobManager</text>
<rect x="2240" y="620" width="220" height="80" rx="2" fill="#f8dfd8" stroke="#222"/>
<text x="2350" y="636" font-family="Arial" font-size="10" font-weight="normal" text-anchor="middle" fill="#111">&lt;&lt;сервис&gt;&gt;</text>
<text x="2350" y="654" font-family="Arial" font-size="12" font-weight="bold" text-anchor="middle" fill="#111">OutboxService</text>
<rect x="2240" y="770" width="220" height="80" rx="2" fill="#f8dfd8" stroke="#222"/>
<text x="2350" y="786" font-family="Arial" font-size="10" font-weight="normal" text-anchor="middle" fill="#111">&lt;&lt;фоновый сервис&gt;&gt;</text>
<text x="2350" y="804" font-family="Arial" font-size="12" font-weight="bold" text-anchor="middle" fill="#111">OutboxPublisherHostedService</text>
<rect x="2470" y="770" width="220" height="80" rx="2" fill="#f8dfd8" stroke="#222"/>
<text x="2580" y="786" font-family="Arial" font-size="10" font-weight="normal" text-anchor="middle" fill="#111">&lt;&lt;Kafka&gt;&gt;</text>
<text x="2580" y="804" font-family="Arial" font-size="12" font-weight="bold" text-anchor="middle" fill="#111">ConfluentKafkaProducer</text>
<polyline points="574.0,153.6 585.0,147.5 574.0,141.4" fill="none" stroke="#222" stroke-width="1.2"/>
<polyline points="724.0,303.6 735.0,297.5 724.0,291.4" fill="none" stroke="#222" stroke-width="1.2"/>
<polyline points="724.0,503.6 735.0,497.5 724.0,491.4" fill="none" stroke="#222" stroke-width="1.2"/>
<polyline points="724.0,673.5 735.0,667.5 724.0,661.5" fill="none" stroke="#222" stroke-width="1.2"/>
<polyline points="724.0,843.5 735.0,837.5 724.0,831.5" fill="none" stroke="#222" stroke-width="1.2"/>
<polyline points="1489.0,843.5 1500.0,837.5 1489.0,831.5" fill="none" stroke="#222" stroke-width="1.2"/>
<polyline points="1489.0,876.0 1500.0,870.0 1489.0,864.0" fill="none" stroke="#222" stroke-width="1.2"/>
<polyline points="1489.0,908.5 1500.0,902.5 1489.0,896.5" fill="none" stroke="#222" stroke-width="1.2"/>
<polyline points="1774.0,526.0 1785.0,520.0 1774.0,514.0" fill="none" stroke="#222" stroke-width="1.2"/>
<polyline points="1389.0,749.0 1395.0,760.0 1401.0,749.0" fill="none" stroke="#222" stroke-width="1.2"/>
<polyline points="1853.5,251.0 1847.5,240.0 1841.5,251.0" fill="none" stroke="#222" stroke-width="1.2"/>
<polyline points="1916.0,251.0 1910.0,240.0 1904.0,251.0" fill="none" stroke="#222" stroke-width="1.2"/>
<polyline points="1978.5,251.0 1972.5,240.0 1966.5,251.0" fill="none" stroke="#222" stroke-width="1.2"/>
<polyline points="2046.0,960.6 2035.0,966.7 2046.0,972.7" fill="none" stroke="#222" stroke-width="1.2"/>
<polyline points="2046.0,997.3 2035.0,1003.3 2046.0,1009.4" fill="none" stroke="#222" stroke-width="1.2"/>
<polyline points="2459.0,816.0 2470.0,810.0 2459.0,804.0" fill="none" stroke="#222" stroke-width="1.2"/>
<polygon points="1560.0,805.0 1550.9,792.0 1569.1,792.0" fill="white" stroke="#222" stroke-width="1.2"/>
<polygon points="2390.0,160.0 2403.0,150.9 2403.0,169.1" fill="white" stroke="#222" stroke-width="1.2"/>
<polygon points="2390.0,317.5 2403.0,308.4 2403.0,326.6" fill="white" stroke="#222" stroke-width="1.2"/>
<polygon points="2390.0,482.5 2403.0,473.4 2403.0,491.6" fill="white" stroke="#222" stroke-width="1.2"/>
<text x="1225" y="374" font-family="Arial" font-size="10" font-weight="normal" text-anchor="start" fill="#111">1</text>
<text x="1365" y="484" font-family="Arial" font-size="10" font-weight="normal" text-anchor="start" fill="#111">0..*</text>
<text x="1270" y="374" font-family="Arial" font-size="10" font-weight="normal" text-anchor="start" fill="#111">1</text>
<text x="1215" y="664" font-family="Arial" font-size="10" font-weight="normal" text-anchor="start" fill="#111">1</text>
<polygon points="1400.0,186.7 1391.0,180.1 1382.0,186.7 1391.0,193.3" fill="#111" stroke="#111" stroke-width="1.2"/>
<text x="1405" y="200" font-family="Arial" font-size="10" font-weight="normal" text-anchor="start" fill="#111">1</text>
<text x="1455" y="186" font-family="Arial" font-size="10" font-weight="normal" text-anchor="start" fill="#111">0..*</text>
<polygon points="1400.0,273.3 1391.0,266.7 1382.0,273.3 1391.0,279.9" fill="#111" stroke="#111" stroke-width="1.2"/>
<text x="1405" y="287" font-family="Arial" font-size="10" font-weight="normal" text-anchor="start" fill="#111">1</text>
<text x="1455" y="429" font-family="Arial" font-size="10" font-weight="normal" text-anchor="start" fill="#111">0..*</text>
<polygon points="1310.0,360.0 1316.6,351.0 1310.0,342.0 1303.4,351.0" fill="#111" stroke="#111" stroke-width="1.2"/>
<text x="1315" y="374" font-family="Arial" font-size="10" font-weight="normal" text-anchor="start" fill="#111">1</text>
<text x="1535" y="604" font-family="Arial" font-size="10" font-weight="normal" text-anchor="start" fill="#111">0..*</text>
<polygon points="1355.0,360.0 1361.6,351.0 1355.0,342.0 1348.4,351.0" fill="#111" stroke="#111" stroke-width="1.2"/>
<text x="1360" y="374" font-family="Arial" font-size="10" font-weight="normal" text-anchor="start" fill="#111">1</text>
<text x="1210" y="484" font-family="Arial" font-size="10" font-weight="normal" text-anchor="start" fill="#111">1</text>
</svg>