<svg xmlns="http://www.w3.org/2000/svg" width="2850" height="1150" viewBox="0 0 2850 1150">
<rect width="100%" height="100%" fill="white"/>
<rect x="40" y="18" width="300" height="38" rx="3" fill="#cfe8ff" stroke="#222"/>
<text x="190" y="43" font-family="Arial" font-size="14" font-weight="bold" text-anchor="middle" fill="#111">API</text>
<rect x="420" y="18" width="590" height="38" rx="3" fill="#fff0bd" stroke="#222"/>
<text x="715" y="43" font-family="Arial" font-size="14" font-weight="bold" text-anchor="middle" fill="#111">Application</text>
<rect x="1090" y="18" width="560" height="38" rx="3" fill="#dff4df" stroke="#222"/>
<text x="1370" y="43" font-family="Arial" font-size="14" font-weight="bold" text-anchor="middle" fill="#111">Domain</text>
<rect x="1730" y="18" width="370" height="38" rx="3" fill="#eadff8" stroke="#222"/>
<text x="1915" y="43" font-family="Arial" font-size="14" font-weight="bold" text-anchor="middle" fill="#111">Persistence</text>
<rect x="2180" y="18" width="590" height="38" rx="3" fill="#f8dfd8" stroke="#222"/>
<text x="2475" y="43" font-family="Arial" font-size="14" font-weight="bold" text-anchor="middle" fill="#111">Infrastructure</text>
<polyline points="305.0,235.0 445.0,235.0 445.0,147.5 585.0,147.5" fill="none" stroke="#222" stroke-width="1.2" stroke-dasharray="7 5"/>
<polyline points="695.0,280.0 715.0,280.0 715.0,270.0 735.0,270.0" fill="none" stroke="#222" stroke-width="1.2" stroke-dasharray="7 5"/>
<polyline points="695.0,420.0 715.0,420.0 715.0,415.0 735.0,415.0" fill="none" stroke="#222" stroke-width="1.2" stroke-dasharray="7 5"/>
<polyline points="695.0,567.5 715.0,567.5 715.0,560.0 735.0,560.0" fill="none" stroke="#222" stroke-width="1.2" stroke-dasharray="7 5"/>
<polyline points="695.0,712.5 715.0,712.5 715.0,705.0 735.0,705.0" fill="none" stroke="#222" stroke-width="1.2" stroke-dasharray="7 5"/>
<polyline points="695.0,862.5 715.0,862.5 715.0,850.0 735.0,850.0" fill="none" stroke="#222" stroke-width="1.2" stroke-dasharray="7 5"/>
<polyline points="850.0,315.0 850.0,612.5 1466.7,612.5 1466.7,910.0" fill="none" stroke="#222" stroke-width="1.2" stroke-dasharray="7 5"/>
<polyline points="965.0,415.0 1182.5,415.0 1182.5,942.5 1400.0,942.5" fill="none" stroke="#222" stroke-width="1.2" stroke-dasharray="7 5"/>
<polyline points="965.0,560.0 1182.5,560.0 1182.5,975.0 1400.0,975.0" fill="none" stroke="#222" stroke-width="1.2" stroke-dasharray="7 5"/>
<polyline points="965.0,705.0 1182.5,705.0 1182.5,1007.5 1400.0,1007.5" fill="none" stroke="#222" stroke-width="1.2" stroke-dasharray="7 5"/>
<polyline points="965.0,850.0 1375.0,850.0 1375.0,520.0 1785.0,520.0" fill="none" stroke="#222" stroke-width="1.2" stroke-dasharray="7 5"/>
<polyline points="965.0,270.0 975.0,270.0 975.0,267.5 985.0,267.5" fill="none" stroke="#222" stroke-width="1.2" stroke-dasharray="7 5"/>
<polyline points="1197.5,380.0 1197.5,570.0 1250.0,570.0 1250.0,760.0" fill="none" stroke="#222" stroke-width="1.2" stroke-dasharray="7 5"/>
<polyline points="1910.0,325.0 1910.0,287.5 1835.0,287.5 1835.0,250.0" fill="none" stroke="#222" stroke-width="1.2" stroke-dasharray="7 5"/>
<polyline points="1910.0,480.0 1910.0,365.0 1885.0,365.0 1885.0,250.0" fill="none" stroke="#222" stroke-width="1.2" stroke-dasharray="7 5"/>
<polyline points="1910.0,635.0 1910.0,442.5 1935.0,442.5 1935.0,250.0" fill="none" stroke="#222" stroke-width="1.2" stroke-dasharray="7 5"/>
<polyline points="2350.0,340.0 2350.0,507.5 2540.0,507.5 2540.0,675.0" fill="none" stroke="#222" stroke-width="1.2" stroke-dasharray="7 5"/>
<polyline points="2350.0,490.0 2350.0,582.5 2610.0,582.5 2610.0,675.0" fill="none" stroke="#222" stroke-width="1.2" stroke-dasharray="7 5"/>
<polyline points="2460.0,600.0 2465.0,600.0 2465.0,710.0 2470.0,710.0" fill="none" stroke="#222" stroke-width="1.2" stroke-dasharray="7 5"/>
<polyline points="2460.0,760.0 2465.0,760.0 2465.0,745.0 2470.0,745.0" fill="none" stroke="#222" stroke-width="1.2" stroke-dasharray="7 5"/>
<polyline points="2350.0,900.0 2350.0,575.0 1985.0,575.0 1985.0,250.0" fill="none" stroke="#222" stroke-width="1.2" stroke-dasharray="7 5"/>
<polyline points="1910.0,405.0 1910.0,657.5 1533.3,657.5 1533.3,910.0" fill="none" stroke="#222" stroke-width="1.2" stroke-dasharray="7 5"/>
<polyline points="2470.0,160.0 2430.0,160.0 2430.0,160.0 2390.0,160.0" fill="none" stroke="#222" stroke-width="1.2" stroke-dasharray="7 5"/>
<polyline points="1503.3,480.0 1503.3,620.0 1530.0,620.0 1530.0,760.0" fill="none" stroke="#222" stroke-width="1.2"/>
<polyline points="1265.0,380.0 1265.0,470.0 1210.0,470.0 1210.0,560.0" fill="none" stroke="#222" stroke-width="1.2"/>
<polyline points="1332.5,380.0 1332.5,470.0 1370.0,470.0 1370.0,560.0" fill="none" stroke="#222" stroke-width="1.2"/>
<polyline points="1400.0,193.3 1425.0,193.3 1425.0,187.5 1450.0,187.5" fill="none" stroke="#222" stroke-width="1.2"/>
<polyline points="1400.0,286.7 1425.0,286.7 1425.0,407.5 1450.0,407.5" fill="none" stroke="#222" stroke-width="1.2"/>
<polyline points="1556.7,480.0 1556.7,522.5 1530.0,522.5 1530.0,565.0" fill="none" stroke="#222" stroke-width="1.2"/>
<rect x="75" y="130" width="230" height="210" rx="2" fill="#cfe8ff" stroke="#222"/>
<text x="190" y="146" font-family="Arial" font-size="10" font-weight="normal" text-anchor="middle" fill="#111">&lt;&lt;контроллер&gt;&gt;</text>
<text x="190" y="164" font-family="Arial" font-size="12" font-weight="bold" text-anchor="middle" fill="#111">ProjectTasksController</text>
<line x1="75" y1="182" x2="305" y2="182" stroke="#333"/>
<text x="81" y="195" font-family="Arial" font-size="10" font-weight="normal" text-anchor="start" fill="#111">+CreateTask()</text>
<text x="81" y="209" font-family="Arial" font-size="10" font-weight="normal" text-anchor="start" fill="#111">+GetTasks()</text>
<text x="81" y="223" font-family="Arial" font-size="10" font-weight="normal" text-anchor="start" fill="#111">+GetTaskById()</text>
<text x="81" y="237" font-family="Arial" font-size="10" font-weight="normal" text-anchor="start" fill="#111">+UpdateTask()</text>
<text x="81" y="251" font-family="Arial" font-size="10" font-weight="normal" text-anchor="start" fill="#111">+AssignTask()</text>
<text x="81" y="265" font-family="Arial" font-size="10" font-weight="normal" text-anchor="start" fill="#111">+StartTask()</text>
<text x="81" y="279" font-family="Arial" font-size="10" font-weight="normal" text-anchor="start" fill="#111">+CompleteTask()</text>
<text x="81" y="293" font-family="Arial" font-size="10" font-weight="normal" text-anchor="start" fill="#111">+AddComment()</text>
<text x="81" y="307" font-family="Arial" font-size="10" font-weight="normal" text-anchor="start" fill="#111">+AddTimeEntry()</text>
<rect x="585" y="105" width="240" height="85" rx="2" fill="#fff0bd" stroke="#222"/>
<text x="705" y="121" font-family="Arial" font-size="10" font-weight="normal" text-anchor="middle" fill="#111">&lt;&lt;интерфейс&gt;&gt;</text>
<text x="705" y="139" font-family="Arial" font-size="12" font-weight="bold" text-anchor="middle" fill="#111">IMediator</text>
<line x1="585" y1="157" x2="825" y2="157" stroke="#333"/>
<text x="591" y="170" font-family="Arial" font-size="10" font-weight="normal" text-anchor="start" fill="#111">+Send()</text>
<rect x="465" y="225" width="230" height="110" rx="2" fill="#fff0bd" stroke="#222"/>
<text x="580" y="241" font-family="Arial" font-size="10" font-weight="normal" text-anchor="middle" fill="#111">&lt;&lt;команда&gt;&gt;</text>
<text x="580" y="259" font-family="Arial" font-size="12" font-weight="bold" text-anchor="middle" fill="#111">CreateProjectTaskCommand</text>
<line x1="465" y1="277" x2="695" y2="277" stroke="#333"/>
<text x="471" y="290" font-family="Arial" font-size="10" font-weight="normal" text-anchor="start" fill="#111">+ProjectId: Guid</text>
<text x="471" y="304" font-family="Arial" font-size="10" font-weight="normal" text-anchor="start" fill="#111">+Title: string</text>
<text x="471" y="318" font-family="Arial" font-size="10" font-weight="normal" text-anchor="start" fill="#111">+ReporterId: Guid</text>
<rect x="735" y="225" width="230" height="90" rx="2" fill="#fff0bd" stroke="#222"/>
<text x="850" y="241" font-family="Arial" font-size="10" font-weight="normal" text-anchor="middle" fill="#111">&lt;&lt;обработчик&gt;&gt;</text>
<text x="850" y="259" font-family="Arial" font-size="12" font-weight="bold" text-anchor="middle" fill="#111">CreateProjectTaskCommandHandler</text>
<line x1="735" y1="277" x2="965" y2="277" stroke="#333"/>
<text x="741" y="290" font-family="Arial" font-size="10" font-weight="normal" text-anchor="start" fill="#111">+Handle()</text>
<rect x="465" y="370" width="230" height="100" rx="2" fill="#fff0bd" stroke="#222"/>
<text x="580" y="386" font-family="Arial" font-size="10" font-weight="normal" text-anchor="middle" fill="#111">&lt;&lt;команда&gt;&gt;</text>
<text x="580" y="404" font-family="Arial" font-size="12" font-weight="bold" text-anchor="middle" fill="#111">AssignProjectTaskCommand</text>
<line x1="465" y1="422" x2="695" y2="422" stroke="#333"/>
<text x="471" y="435" font-family="Arial" font-size="10" font-weight="normal" text-anchor="start" fill="#111">+TaskId: Guid</text>
<text x="471" y="449" font-family="Arial" font-size="10" font-weight="normal" text-anchor="start" fill="#111">+AssigneeId: Guid</text>
<rect x="735" y="370" width="230" height="90" rx="2" fill="#fff0bd" stroke="#222"/>
<text x="850" y="386" font-family="Arial" font-size="10" font-weight="normal" text-anchor="middle" fill="#111">&lt;&lt;обработчик&gt;&gt;</text>
<text x="850" y="404" font-family="Arial" font-size="12" font-weight="bold" text-anchor="middle" fill="#111">AssignProjectTaskCommandHandler</text>
<line x1="735" y1="422" x2="965" y2="422" stroke="#333"/>
<text x="741" y="435" font-family="Arial" font-size="10" font-weight="normal" text-anchor="start" fill="#111">+Handle()</text>
<rect x="465" y="515" width="230" height="105" rx="2" fill="#fff0bd" stroke="#222"/>
<text x="580" y="531" font-family="Arial" font-size="10" font-weight="normal" text-anchor="middle" fill="#111">&lt;&lt;команда&gt;&gt;</text>
<text x="580" y="549" font-family="Arial" font-size="12" font-weight="bold" text-anchor="middle" fill="#111">AddCommentCommand</text>
<line x1="465" y1="567" x2="695" y2="567" stroke="#333"/>
<text x="471" y="580" font-family="Arial" font-size="10" font-weight="normal" text-anchor="start" fill="#111">+TaskId: Guid</text>
<text x="471" y="594" font-family="Arial" font-size="10" font-weight="normal" text-anchor="start" fill="#111">+AuthorId: Guid</text>
<text x="471" y="608" font-family="Arial" font-size="10" font-weight="normal" text-anchor="start" fill="#111">+Text: string</text>
<rect x="735" y="515" width="230" height="90" rx="2" fill="#fff0bd" stroke="#222"/>
<text x="850" y="531" font-family="Arial" font-size="10" font-weight="normal" text-anchor="middle" fill="#111">&lt;&lt;обработчик&gt;&gt;</text>
<text x="850" y="549" font-family="Arial" font-size="12" font-weight="bold" text-anchor="middle" fill="#111">AddCommentCommandHandler</text>
<line x1="735" y1="567" x2="965" y2="567" stroke="#333"/>
<text x="741" y="580" font-family="Arial" font-size="10" font-weight="normal" text-anchor="start" fill="#111">+Handle()</text>
<rect x="465" y="660" width="230" height="105" rx="2" fill="#fff0bd" stroke="#222"/>
<text x="580" y="676" font-family="Arial" font-size="10" font-weight="normal" text-anchor="middle" fill="#111">&lt;&lt;команда&gt;&gt;</text>
<text x="580" y="694" font-family="Arial" font-size="12" font-weight="bold" text-anchor="middle" fill="#111">LogTimeCommand</text>
<line x1="465" y1="712" x2="695" y2="712" stroke="#333"/>
<text x="471" y="725" font-family="Arial" font-size="10" font-weight="normal" text-anchor="start" fill="#111">+TaskId: Guid</text>
<text x="471" y="739" font-family="Arial" font-size="10" font-weight="normal" text-anchor="start" fill="#111">+UserId: Guid</text>
<text x="471" y="753" font-family="Arial" font-size="10" font-weight="normal" text-anchor="start" fill="#111">+Period: TimeRange</text>
<rect x="735" y="660" width="230" height="90" rx="2" fill="#fff0bd" stroke="#222"/>
<text x="850" y="676" font-family="Arial" font-size="10" font-weight="normal" text-anchor="middle" fill="#111">&lt;&lt;обработчик&gt;&gt;</text>
<text x="850" y="694" font-family="Arial" font-size="12" font-weight="bold" text-anchor="middle" fill="#111">LogTimeCommandHandler</text>
<line x1="735" y1="712" x2="965" y2="712" stroke="#333"/>
<text x="741" y="725" font-family="Arial" font-size="10" font-weight="normal" text-anchor="start" fill="#111">+Handle()</text>
<rect x="465" y="805" width="230" height="115" rx="2" fill="#fff0bd" stroke="#222"/>
<text x="580" y="821" font-family="Arial" font-size="10" font-weight="normal" text-anchor="middle" fill="#111">&lt;&lt;запрос&gt;&gt;</text>
<text x="580" y="839" font-family="Arial" font-size="12" font-weight="bold" text-anchor="middle" fill="#111">GetProjectTasksQuery</text>
<line x1="465" y1="857" x2="695" y2="857" stroke="#333"/>
<text x="471" y="870" font-family="Arial" font-size="10" font-weight="normal" text-anchor="start" fill="#111">+ProjectId: Guid</text>
<text x="471" y="884" font-family="Arial" font-size="10" font-weight="normal" text-anchor="start" fill="#111">+Status: ProjectTaskStatus?</text>
<text x="471" y="898" font-family="Arial" font-size="10" font-weight="normal" text-anchor="start" fill="#111">+Page: int</text>
<rect x="735" y="805" width="230" height="90" rx="2" fill="#fff0bd" stroke="#222"/>
<text x="850" y="821" font-family="Arial" font-size="10" font-weight="normal" text-anchor="middle" fill="#111">&lt;&lt;обработчик запроса&gt;&gt;</text>
<text x="850" y="839" font-family="Arial" font-size="12" font-weight="bold" text-anchor="middle" fill="#111">GetProjectTasksQueryHandler</text>
<line x1="735" y1="857" x2="965" y2="857" stroke="#333"/>
<text x="741" y="870" font-family="Arial" font-size="10" font-weight="normal" text-anchor="start" fill="#111">+Handle()</text>
<rect x="2200" y="100" width="190" height="120" rx="2" fill="#fff0bd" stroke="#222"/>
<text x="2295" y="116" font-family="Arial" font-size="10" font-weight="normal" text-anchor="middle" fill="#111">&lt;&lt;интерфейс&gt;&gt;</text>
<text x="2295" y="134" font-family="Arial" font-size="12" font-weight="bold" text-anchor="middle" fill="#111">ICacheService</text>
<line x1="2200" y1="152" x2="2390" y2="152" stroke="#333"/>
<text x="2206" y="165" font-family="Arial" font-size="10" font-weight="normal" text-anchor="start" fill="#111">+GetAsync()</text>
<text x="2206" y="179" font-family="Arial" font-size="10" font-weight="normal" text-anchor="start" fill="#111">+SetAsync()</text>
<text x="2206" y="193" font-family="Arial" font-size="10" font-weight="normal" text-anchor="start" fill="#111">+RemoveAsync()</text>
<rect x="2470" y="675" width="210" height="105" rx="2" fill="#fff0bd" stroke="#222"/>
<text x="2575" y="691" font-family="Arial" font-size="10" font-weight="normal" text-anchor="middle" fill="#111">&lt;&lt;интерфейс&gt;&gt;</text>
<text x="2575" y="709" font-family="Arial" font-size="12" font-weight="bold" text-anchor="middle" fill="#111">IIncomingEventRepository</text>
<line x1="2470" y1="727" x2="2680" y2="727" stroke="#333"/>
<text x="2476" y="740" font-family="Arial" font-size="10" font-weight="normal" text-anchor="start" fill="#111">+GetPendingAsync()</text>
<text x="2476" y="754" font-family="Arial" font-size="10" font-weight="normal" text-anchor="start" fill="#111">+MarkProcessedAsync()</text>
<rect x="985" y="225" width="170" height="85" rx="2" fill="#fff0bd" stroke="#222"/>
<text x="1070" y="241" font-family="Arial" font-size="10" font-weight="normal" text-anchor="middle" fill="#111">&lt;&lt;интерфейс&gt;&gt;</text>
<text x="1070" y="259" font-family="Arial" font-size="12" font-weight="bold" text-anchor="middle" fill="#111">IAuthorizationService</text>
<line x1="985" y1="277" x2="1155" y2="277" stroke="#333"/>
<text x="991" y="290" font-family="Arial" font-size="10" font-weight="normal" text-anchor="start" fill="#111">+GetAccessToken()</text>
<rect x="1130" y="100" width="270" height="280" rx="2" fill="#dff4df" stroke="#222"/>
<text x="1265" y="116" font-family="Arial" font-size="10" font-weight="normal" text-anchor="middle" fill="#111">&lt;&lt;агрегат&gt;&gt;</text>
<text x="1265" y="134" font-family="Arial" font-size="12" font-weight="bold" text-anchor="middle" fill="#111">ProjectTask</text>
<line x1="1130" y1="152" x2="1400" y2="152" stroke="#333"/>
<text x="1136" y="165" font-family="Arial" font-size="10" font-weight="normal" text-anchor="start" fill="#111">+Id: Guid</text>
<text x="1136" y="179" font-family="Arial" font-size="10" font-weight="normal" text-anchor="start" fill="#111">+ProjectId: Guid</text>
<text x="1136" y="193" font-family="Arial" font-size="10" font-weight="normal" text-anchor="start" fill="#111">+Title: string</text>
<text x="1136" y="207" font-family="Arial" font-size="10" font-weight="normal" text-anchor="start" fill="#111">+AssigneeId: Guid?</text>
<text x="1136" y="221" font-family="Arial" font-size="10" font-weight="normal" text-anchor="start" fill="#111">+ReporterId: Guid</text>
<text x="1136" y="235" font-family="Arial" font-size="10" font-weight="normal" text-anchor="start" fill="#111">+Status: ProjectTaskStatus</text>
<text x="1136" y="249" font-family="Arial" font-size="10" font-weight="normal" text-anchor="start" fill="#111">+Priority: TaskPriority</text>
<line x1="1130" y1="263" x2="1400" y2="263" stroke="#333"/>
<text x="1136" y="276" font-family="Arial" font-size="10" font-weight="normal" text-anchor="start" fill="#111">+CreateDraft()</text>
<text x="1136" y="290" font-family="Arial" font-size="10" font-weight="normal" text-anchor="start" fill="#111">+Assign()</text>
<text x="1136" y="304" font-family="Arial" font-size="10" font-weight="normal" text-anchor="start" fill="#111">+MarkInProgress()</text>
<text x="1136" y="318" font-family="Arial" font-size="10" font-weight="normal" text-anchor="start" fill="#111">+MarkCompleted()</text>
<text x="1136" y="332" font-family="Arial" font-size="10" font-weight="normal" text-anchor="start" fill="#111">+Cancel()</text>
<text x="1136" y="346" font-family="Arial" font-size="10" font-weight="normal" text-anchor="start" fill="#111">+AddComment()</text>
<text x="1136" y="360" font-family="Arial" font-size="10" font-weight="normal" text-anchor="start" fill="#111">+AddTimeEntry()</text>
<rect x="1450" y="115" width="160" height="145" rx="2" fill="#dff4df" stroke="#222"/>
<text x="1530" y="131" font-family="Arial" font-size="10" font-weight="normal" text-anchor="middle" fill="#111">&lt;&lt;сущность&gt;&gt;</text>
<text x="1530" y="149" font-family="Arial" font-size="12" font-weight="bold" text-anchor="middle" fill="#111">Comment</text>
<line x1="1450" y1="167" x2="1610" y2="167" stroke="#333"/>
<text x="1456" y="180" font-family="Arial" font-size="10" font-weight="normal" text-anchor="start" fill="#111">+Id: Guid</text>
<text x="1456" y="194" font-family="Arial" font-size="10" font-weight="normal" text-anchor="start" fill="#111">+TaskId: Guid</text>
<text x="1456" y="208" font-family="Arial" font-size="10" font-weight="normal" text-anchor="start" fill="#111">+AuthorId: Guid</text>
<text x="1456" y="222" font-family="Arial" font-size="10" font-weight="normal" text-anchor="start" fill="#111">+Text: string</text>
<text x="1456" y="236" font-family="Arial" font-size="10" font-weight="normal" text-anchor="start" fill="#111">+CreatedAt: DateTime</text>
<rect x="1450" y="335" width="160" height="145" rx="2" fill="#dff4df" stroke="#222"/>
<text x="1530" y="351" font-family="Arial" font-size="10" font-weight="normal" text-anchor="middle" fill="#111">&lt;&lt;сущность&gt;&gt;</text>
<text x="1530" y="369" font-family="Arial" font-size="12" font-weight="bold" text-anchor="middle" fill="#111">TimeEntry</text>
<line x1="1450" y1="387" x2="1610" y2="387" stroke="#333"/>
<text x="1456" y="400" font-family="Arial" font-size="10" font-weight="normal" text-anchor="start" fill="#111">+Id: Guid</text>
<text x="1456" y="414" font-family="Arial" font-size="10" font-weight="normal" text-anchor="start" fill="#111">+UserId: Guid</text>
<text x="1456" y="428" font-family="Arial" font-size="10" font-weight="normal" text-anchor="start" fill="#111">+TaskId: Guid</text>
<text x="1456" y="442" font-family="Arial" font-size="10" font-weight="normal" text-anchor="start" fill="#111">+Period: TimeRange</text>
<text x="1456" y="456" font-family="Arial" font-size="10" font-weight="normal" text-anchor="start" fill="#111">+Duration: TimeSpan</text>
<rect x="1450" y="565" width="160" height="115" rx="2" fill="#dff4df" stroke="#222"/>
<text x="1530" y="581" font-family="Arial" font-size="10" font-weight="normal" text-anchor="middle" fill="#111">&lt;&lt;value object&gt;&gt;</text>
<text x="1530" y="599" font-family="Arial" font-size="12" font-weight="bold" text-anchor="middle" fill="#111">TimeRange</text>
<line x1="1450" y1="617" x2="1610" y2="617" stroke="#333"/>
<text x="1456" y="630" font-family="Arial" font-size="10" font-weight="normal" text-anchor="start" fill="#111">+Start: DateTime</text>
<text x="1456" y="644" font-family="Arial" font-size="10" font-weight="normal" text-anchor="start" fill="#111">+End: DateTime</text>
<text x="1456" y="658" font-family="Arial" font-size="10" font-weight="normal" text-anchor="start" fill="#111">+Duration: TimeSpan</text>
<rect x="1450" y="760" width="160" height="100" rx="2" fill="#dff4df" stroke="#222"/>
<text x="1530" y="776" font-family="Arial" font-size="10" font-weight="normal" text-anchor="middle" fill="#111">&lt;&lt;value object&gt;&gt;</text>
<text x="1530" y="794" font-family="Arial" font-size="12" font-weight="bold" text-anchor="middle" fill="#111">Money</text>
<line x1="1450" y1="812" x2="1610" y2="812" stroke="#333"/>
<text x="1456" y="825" font-family="Arial" font-size="10" font-weight="normal" text-anchor="start" fill="#111">+Amount: decimal</text>
<text x="1456" y="839" font-family="Arial" font-size="10" font-weight="normal" text-anchor="start" fill="#111">+Currency: string</text>
<rect x="1130" y="560" width="160" height="120" rx="2" fill="#dff4df" stroke="#222"/>
<text x="1210" y="576" font-family="Arial" font-size="10" font-weight="normal" text-anchor="middle" fill="#111">&lt;&lt;enum&gt;&gt;</text>
<text x="1210" y="594" font-family="Arial" font-size="12" font-weight="bold" text-anchor="middle" fill="#111">ProjectTaskStatus</text>
<line x1="1130" y1="612" x2="1290" y2="612" stroke="#333"/>
<text x="1136" y="625" font-family="Arial" font-size="10" font-weight="normal" text-anchor="start" fill="#111">+ToDo</text>
<text x="1136" y="639" font-family="Arial" font-size="10" font-weight="normal" text-anchor="start" fill="#111">+InProgress</text>
<text x="1136" y="653" font-family="Arial" font-size="10" font-weight="normal" text-anchor="start" fill="#111">+Completed</text>
<text x="1136" y="667" font-family="Arial" font-size="10" font-weight="normal" text-anchor="start" fill="#111">+Cancelled</text>
<rect x="1310" y="560" width="120" height="105" rx="2" fill="#dff4df" stroke="#222"/>
<text x="1370" y="576" font-family="Arial" font-size="10" font-weight="normal" text-anchor="middle" fill="#111">&lt;&lt;enum&gt;&gt;</text>
<text x="1370" y="594" font-family="Arial" font-size="12" font-weight="bold" text-anchor="middle" fill="#111">TaskPriority</text>
<line x1="1310" y1="612" x2="1430" y2="612" stroke="#333"/>
<text x="1316" y="625" font-family="Arial" font-size="10" font-weight="normal" text-anchor="start" fill="#111">+Low</text>
<text x="1316" y="639" font-family="Arial" font-size="10" font-weight="normal" text-anchor="start" fill="#111">+Medium</text>
<text x="1316" y="653" font-family="Arial" font-size="10" font-weight="normal" text-anchor="start" fill="#111">+High</text>
<rect x="1130" y="760" width="240" height="170" rx="2" fill="#dff4df" stroke="#222"/>
<text x="1250" y="776" font-family="Arial" font-size="10" font-weight="normal" text-anchor="middle" fill="#111">&lt;&lt;события&gt;&gt;</text>
<text x="1250" y="794" font-family="Arial" font-size="12" font-weight="bold" text-anchor="middle" fill="#111">DomainEvent</text>
<line x1="1130" y1="812" x2="1370" y2="812" stroke="#333"/>
<text x="1136" y="825" font-family="Arial" font-size="10" font-weight="normal" text-anchor="start" fill="#111">+TaskCreatedDomainEvent</text>
<text x="1136" y="839" font-family="Arial" font-size="10" font-weight="normal" text-anchor="start" fill="#111">+TaskAssignedDomainEvent</text>
<text x="1136" y="853" font-family="Arial" font-size="10" font-weight="normal" text-anchor="start" fill="#111">+TaskCompletedDomainEvent</text>
<text x="1136" y="867" font-family="Arial" font-size="10" font-weight="normal" text-anchor="start" fill="#111">+CommentAddedDomainEvent</text>
<text x="1136" y="881" font-family="Arial" font-size="10" font-weight="normal" text-anchor="start" fill="#111">+TimeEntryAddedDomainEvent</text>
<rect x="1400" y="910" width="200" height="130" rx="2" fill="#dff4df" stroke="#222"/>
<text x="1500" y="926" font-family="Arial" font-size="10" font-weight="normal" text-anchor="middle" fill="#111">&lt;&lt;интерфейс&gt;&gt;</text>
<text x="1500" y="944" font-family="Arial" font-size="12" font-weight="bold" text-anchor="middle" fill="#111">IProjectTaskRepository</text>
<line x1="1400" y1="962" x2="1600" y2="962" stroke="#333"/>
<text x="1406" y="975" font-family="Arial" font-size="10" font-weight="normal" text-anchor="start" fill="#111">+GetByIdAsync()</text>
<text x="1406" y="989" font-family="Arial" font-size="10" font-weight="normal" text-anchor="start" fill="#111">+AddAsync()</text>
<text x="1406" y="1003" font-family="Arial" font-size="10" font-weight="normal" text-anchor="start" fill="#111">+UpdateAsync()</text>
<text x="1406" y="1017" font-family="Arial" font-size="10" font-weight="normal" text-anchor="start" fill="#111">+DeleteAsync()</text>
<rect x="1785" y="100" width="250" height="150" rx="2" fill="#eadff8" stroke="#222"/>
<text x="1910" y="116" font-family="Arial" font-size="10" font-weight="normal" text-anchor="middle" fill="#111">&lt;&lt;EF Core&gt;&gt;</text>
<text x="1910" y="134" font-family="Arial" font-size="12" font-weight="bold" text-anchor="middle" fill="#111">ProjectTasksDbContext</text>
<line x1="1785" y1="152" x2="2035" y2="152" stroke="#333"/>
<text x="1791" y="165" font-family="Arial" font-size="10" font-weight="normal" text-anchor="start" fill="#111">+Tasks</text>
<text x="1791" y="179" font-family="Arial" font-size="10" font-weight="normal" text-anchor="start" fill="#111">+Comments</text>
<text x="1791" y="193" font-family="Arial" font-size="10" font-weight="normal" text-anchor="start" fill="#111">+TimeEntries</text>
<text x="1791" y="207" font-family="Arial" font-size="10" font-weight="normal" text-anchor="start" fill="#111">+ReadModels</text>
<text x="1791" y="221" font-family="Arial" font-size="10" font-weight="normal" text-anchor="start" fill="#111">+IncomingEvents</text>
<text x="1791" y="235" font-family="Arial" font-size="10" font-weight="normal" text-anchor="start" fill="#111">+OutboxMessages</text>
<rect x="1785" y="325" width="250" height="80" rx="2" fill="#eadff8" stroke="#222"/>
<text x="1910" y="341" font-family="Arial" font-size="10" font-weight="normal" text-anchor="middle" fill="#111">&lt;&lt;репозиторий&gt;&gt;</text>
<text x="1910" y="359" font-family="Arial" font-size="12" font-weight="bold" text-anchor="middle" fill="#111">ProjectTaskRepository</text>
<rect x="1785" y="480" width="250" height="80" rx="2" fill="#eadff8" stroke="#222"/>
<text x="1910" y="496" font-family="Arial" font-size="10" font-weight="normal" text-anchor="middle" fill="#111">&lt;&lt;запросы&gt;&gt;</text>
<text x="1910" y="514" font-family="Arial" font-size="12" font-weight="bold" text-anchor="middle" fill="#111">ProjectTaskQueryService</text>
<rect x="1785" y="635" width="250" height="80" rx="2" fill="#eadff8" stroke="#222"/>
<text x="1910" y="651" font-family="Arial" font-size="10" font-weight="normal" text-anchor="middle" fill="#111">&lt;&lt;read repository&gt;&gt;</text>
<text x="1910" y="669" font-family="Arial" font-size="12" font-weight="bold" text-anchor="middle" fill="#111">CommentReadRepository</text>
<rect x="1785" y="780" width="250" height="110" rx="2" fill="#eadff8" stroke="#222"/>
<text x="1910" y="796" font-family="Arial" font-size="10" font-weight="normal" text-anchor="middle" fill="#111">&lt;&lt;read model&gt;&gt;</text>
<text x="1910" y="814" font-family="Arial" font-size="12" font-weight="bold" text-anchor="middle" fill="#111">MemberReadModel</text>
<line x1="1785" y1="832" x2="2035" y2="832" stroke="#333"/>
<text x="1791" y="845" font-family="Arial" font-size="10" font-weight="normal" text-anchor="start" fill="#111">+UserId: Guid</text>
<text x="1791" y="859" font-family="Arial" font-size="10" font-weight="normal" text-anchor="start" fill="#111">+ProjectId: Guid</text>
<text x="1791" y="873" font-family="Arial" font-size="10" font-weight="normal" text-anchor="start" fill="#111">+Role: string</text>
<rect x="1785" y="910" width="250" height="110" rx="2" fill="#eadff8" stroke="#222"/>
<text x="1910" y="926" font-family="Arial" font-size="10" font-weight="normal" text-anchor="middle" fill="#111">&lt;&lt;read model&gt;&gt;</text>
<text x="1910" y="944" font-family="Arial" font-size="12" font-weight="bold" text-anchor="middle" fill="#111">ProjectReadModel</text>
<line x1="1785" y1="962" x2="2035" y2="962" stroke="#333"/>
<text x="1791" y="975" font-family="Arial" font-size="10" font-weight="normal" text-anchor="start" fill="#111">+Id: Guid</text>
<text x="1791" y="989" font-family="Arial" font-size="10" font-weight="normal" text-anchor="start" fill="#111">+Title: string</text>
<text x="1791" y="1003" font-family="Arial" font-size="10" font-weight="normal" text-anchor="start" fill="#111">+OwnerId: Guid</text>
<rect x="2470" y="120" width="220" height="80" rx="2" fill="#f8dfd8" stroke="#222"/>
<text x="2580" y="136" font-family="Arial" font-size="10" font-weight="normal" text-anchor="middle" fill="#111">&lt;&lt;Redis&gt;&gt;</text>
<text x="2580" y="154" font-family="Arial" font-size="12" font-weight="bold" text-anchor="middle" fill="#111">RedisCacheService</text>
<rect x="2240" y="260" width="220" height="80" rx="2" fill="#f8dfd8" stroke="#222"/>
<text x="2350" y="276" font-family="Arial" font-size="10" font-weight="normal" text-anchor="middle" fill="#111">&lt;&lt;Kafka consumer&gt;&gt;</text>
<text x="2350" y="294" font-family="Arial" font-size="12" font-weight="bold" text-anchor="middle" fill="#111">UsersConsumerHostedService</text>
<rect x="2240" y="410" width="220" height="80" rx="2" fill="#f8dfd8" stroke="#222"/>
<text x="2350" y="426" font-family="Arial" font-size="10" font-weight="normal" text-anchor="middle" fill="#111">&lt;&lt;Kafka consumer&gt;&gt;</text>
<text x="2350" y="444" font-family="Arial" font-size="12" font-weight="bold" text-anchor="middle" fill="#111">ProjectsConsumerHostedService</text>
<rect x="2240" y="560" width="220" height="80" rx="2" fill="#f8dfd8" stroke="#222"/>
<text x="2350" y="576" font-family="Arial" font-size="10" font-weight="normal" text-anchor="middle" fill="#111">&lt;&lt;Kafka consumer&gt;&gt;</text>
<text x="2350" y="594" font-family="Arial" font-size="12" font-weight="bold" text-anchor="middle" fill="#111">MembersConsumerHostedService</text>
<rect x="2240" y="720" width="220" height="80" rx="2" fill="#f8dfd8" stroke="#222"/>
<text x="2350" y="736" font-family="Arial" font-size="10" font-weight="normal" text-anchor="middle" fill="#111">&lt;&lt;фоновый сервис&gt;&gt;</text>
<text x="2350" y="754" font-family="Arial" font-size="10" font-weight="bold" text-anchor="middle" fill="#111">IncomingEventsProcessorHostedService</text>
<rect x="2240" y="900" width="220" height="80" rx="2" fill="#f8dfd8" stroke="#222"/>
<text x="2350" y="916" font-family="Arial" font-size="10" font-weight="normal" text-anchor="middle" fill="#111">&lt;&lt;фоновый сервис&gt;&gt;</text>
<text x="2350" y="934" font-family="Arial" font-size="12" font-weight="bold" text-anchor="middle" fill="#111">OutboxPublisherHostedService</text>
<polyline points="574.0,153.6 585.0,147.5 574.0,141.4" fill="none" stroke="#222" stroke-width="1.2"/>
<polyline points="724.0,276.1 735.0,270.0 724.0,263.9" fill="none" stroke="#222" stroke-width="1.2"/>
<polyline points="724.0,421.1 735.0,415.0 724.0,408.9" fill="none" stroke="#222" stroke-width="1.2"/>
<polyline points="724.0,566.0 735.0,560.0 724.0,554.0" fill="none" stroke="#222" stroke-width="1.2"/>
<polyline points="724.0,711.0 735.0,705.0 724.0,699.0" fill="none" stroke="#222" stroke-width="1.2"/>
<polyline points="724.0,856.0 735.0,850.0 724.0,844.0" fill="none" stroke="#222" stroke-width="1.2"/>
<polyline points="1460.6,899.0 1466.7,910.0 1472.7,899.0" fill="none" stroke="#222" stroke-width="1.2"/>
<polyline points="1389.0,948.5 1400.0,942.5 1389.0,936.5" fill="none" stroke="#222" stroke-width="1.2"/>
<polyline points="1389.0,981.0 1400.0,975.0 1389.0,969.0" fill="none" stroke="#222" stroke-width="1.2"/>
<polyline points="1389.0,1013.5 1400.0,1007.5 1389.0,1001.5" fill="none" stroke="#222" stroke-width="1.2"/>
<polyline points="1774.0,526.0 1785.0,520.0 1774.0,514.0" fill="none" stroke="#222" stroke-width="1.2"/>
<polyline points="974.0,273.6 985.0,267.5 974.0,261.4" fill="none" stroke="#222" stroke-width="1.2"/>
<polyline points="1244.0,749.0 1250.0,760.0 1256.0,749.0" fill="none" stroke="#222" stroke-width="1.2"/>
<polyline points="1841.0,261.0 1835.0,250.0 1829.0,261.0" fill="none" stroke="#222" stroke-width="1.2"/>
<polyline points="1891.0,261.0 1885.0,250.0 1879.0,261.0" fill="none" stroke="#222" stroke-width="1.2"/>
<polyline points="1941.0,261.0 1935.0,250.0 1929.0,261.0" fill="none" stroke="#222" stroke-width="1.2"/>
<polyline points="2533.9,664.0 2540.0,675.0 2546.1,664.0" fill="none" stroke="#222" stroke-width="1.2"/>
<polyline points="2603.9,664.0 2610.0,675.0 2616.1,664.0" fill="none" stroke="#222" stroke-width="1.2"/>
<polyline points="2459.0,716.0 2470.0,710.0 2459.0,704.0" fill="none" stroke="#222" stroke-width="1.2"/>
<polyline points="2459.0,751.0 2470.0,745.0 2459.0,739.0" fill="none" stroke="#222" stroke-width="1.2"/>
<polyline points="1991.0,261.0 1985.0,250.0 1979.0,261.0" fill="none" stroke="#222" stroke-width="1.2"/>
<polygon points="1533.3,910.0 1524.2,897.0 1542.4,897.0" fill="white" stroke="#222" stroke-width="1.2"/>
<polygon points="2390.0,160.0 2403.0,150.9 2403.0,169.1" fill="white" stroke="#222" stroke-width="1.2"/>
<text x="1508" y="494" font-family="Arial" font-size="10" font-weight="normal" text-anchor="start" fill="#111">0..1</text>
<text x="1535" y="774" font-family="Arial" font-size="10" font-weight="normal" text-anchor="start" fill="#111">1</text>
<text x="1270" y="394" font-family="Arial" font-size="10" font-weight="normal" text-anchor="start" fill="#111">1</text>
<text x="1215" y="574" font-family="Arial" font-size="10" font-weight="normal" text-anchor="start" fill="#111">1</text>
<text x="1337" y="394" font-family="Arial" font-size="10" font-weight="normal" text-anchor="start" fill="#111">1</text>
<text x="1375" y="574" font-family="Arial" font-size="10" font-weight="normal" text-anchor="start" fill="#111">1</text>
<polygon points="1400.0,193.3 1391.0,186.7 1382.0,193.3 1391.0,199.9" fill="#111" stroke="#111" stroke-width="1.2"/>
<text x="1405" y="207" font-family="Arial" font-size="10" font-weight="normal" text-anchor="start" fill="#111">1</text>
<text x="1455" y="201" font-family="Arial" font-size="10" font-weight="normal" text-anchor="start" fill="#111">0..*</text>
<polygon points="1400.0,286.7 1391.0,280.1 1382.0,286.7 1391.0,293.3" fill="#111" stroke="#111" stroke-width="1.2"/>
<text x="1405" y="300" font-family="Arial" font-size="10" font-weight="normal" text-anchor="start" fill="#111">1</text>
<text x="1455" y="421" font-family="Arial" font-size="10" font-weight="normal" text-anchor="start" fill="#111">0..*</text>
<polygon points="1556.7,480.0 1563.3,471.0 1556.7,462.0 1550.1,471.0" fill="#111" stroke="#111" stroke-width="1.2"/>
<text x="1561" y="494" font-family="Arial" font-size="10" font-weight="normal" text-anchor="start" fill="#111">1</text>
<text x="1535" y="579" font-family="Arial" font-size="10" font-weight="normal" text-anchor="start" fill="#111">1</text>
</svg>